# xmcd
#
# Track frame offsets: 
#        150
#        18375
#        34352
#        49420
#        59259
#        73152
#        96047
#        111841
#        132767
#        146604
#        168828
#
# Disc length: 2538 seconds
#
# Revision: 0
# Processed by: cddbd v1.5.2PL0 Copyright (c) Steve Scherf et al.
# Submitted via: ExactAudioCopy v1.0b3
#
DISCID=9c09e80b
DTITLE=Robin Trower - What Lies Beneath
DYEAR=2009
DGENRE=Blues
TTITLE0=Wish You Were Mine
TTITLE1=What Lies Beneath
TTITLE2=As You Watch Each City Fall (Part 1)
TTITLE3=As You Watch Each City Fall (Part 2)
TTITLE4=Freefall
TTITLE5=Once The Spell Is Broken
TTITLE6=Sleeping On The Moon
TTITLE7=Time And Emotion
TTITLE8=Skin And Bone
TTITLE9=Buffalo Blues
TTITLE10=Find A Place
EXTD=
EXTT0=
EXTT1=
EXTT2=
EXTT3=
EXTT4=
EXTT5=
EXTT6=
EXTT7=
EXTT8=
EXTT9=
EXTT10=
PLAYORDER=
